<svg width="198" height="15" viewBox="0 0 198 15" fill="none" xmlns="http://www.w3.org/2000/svg">
<path d="M11.7812 2.67578H7.61719V14H4.55762V2.67578H0.380859V0.352539H11.7812V2.67578ZM20.2231 14.2412C19.1736 14.2412 18.2173 14.0762 17.354 13.7461C16.4907 13.4076 15.7501 12.9336 15.1323 12.3242C14.5229 11.7148 14.049 10.987 13.7104 10.1406C13.3719 9.29427 13.2026 8.36328 13.2026 7.34766C13.2026 6.28971 13.3677 5.32064 13.6977 4.44043C14.0363 3.55176 14.5187 2.79004 15.145 2.15527C15.7713 1.51204 16.533 1.0127 17.4302 0.657227C18.3273 0.301758 19.3429 0.124023 20.477 0.124023C21.5265 0.124023 22.4744 0.297526 23.3208 0.644531C24.1671 0.991536 24.8908 1.47396 25.4917 2.0918C26.0926 2.70964 26.5539 3.44173 26.8755 4.28809C27.2055 5.12598 27.3706 6.04427 27.3706 7.04297C27.3706 8.14323 27.1971 9.1377 26.8501 10.0264C26.5031 10.915 26.0122 11.6725 25.3774 12.2988C24.7511 12.9167 23.9979 13.3949 23.1177 13.7334C22.2459 14.0719 21.2811 14.2412 20.2231 14.2412ZM20.3628 2.44727C19.7449 2.44727 19.1906 2.56152 18.6997 2.79004C18.2088 3.01855 17.7941 3.34017 17.4555 3.75488C17.117 4.1696 16.8546 4.66895 16.6684 5.25293C16.4907 5.83691 16.4018 6.48438 16.4018 7.19531C16.4018 7.91471 16.4865 8.56641 16.6557 9.15039C16.8335 9.72591 17.0874 10.221 17.4175 10.6357C17.7475 11.042 18.1496 11.3594 18.6235 11.5879C19.1059 11.8079 19.6476 11.918 20.2485 11.918C20.8833 11.918 21.4461 11.8122 21.937 11.6006C22.4279 11.389 22.8384 11.0843 23.1684 10.6865C23.4985 10.2803 23.7482 9.78939 23.9175 9.21387C24.0867 8.62988 24.1714 7.96973 24.1714 7.2334C24.1714 6.48014 24.091 5.80729 23.9302 5.21484C23.7693 4.6224 23.5281 4.12305 23.2065 3.7168C22.8934 3.30208 22.4956 2.98893 22.0132 2.77734C21.5392 2.55729 20.9891 2.44727 20.3628 2.44727ZM41.4492 10.001C41.4492 10.6104 41.3222 11.1605 41.0683 11.6514C40.8144 12.1423 40.4589 12.5654 40.0019 12.9209C39.5449 13.2679 38.9948 13.5345 38.3515 13.7207C37.7083 13.9069 37.0016 14 36.2314 14H31.0009V0.352539H36.0283C37.594 0.352539 38.7747 0.631836 39.5703 1.19043C40.3743 1.74902 40.7763 2.52344 40.7763 3.51367C40.7763 4.27539 40.5351 4.93132 40.0527 5.48145C39.5787 6.03158 38.8932 6.42936 37.9961 6.6748V6.71289C38.5546 6.77214 39.0498 6.89909 39.4814 7.09375C39.913 7.27995 40.2727 7.51693 40.5605 7.80469C40.8567 8.09245 41.0768 8.42676 41.2207 8.80762C41.373 9.18001 41.4492 9.5778 41.4492 10.001ZM37.5771 3.95801C37.5771 3.37402 37.3909 2.98047 37.0185 2.77734C36.6461 2.56576 36.0621 2.45996 35.2666 2.45996H34.0605V5.90039H35.2285C35.9902 5.90039 36.5699 5.73958 36.9677 5.41797C37.374 5.09635 37.5771 4.6097 37.5771 3.95801ZM38.2627 9.97559C38.2627 9.2985 38.0341 8.80339 37.5771 8.49023C37.1285 8.17708 36.443 8.02051 35.5205 8.02051H34.0605V11.8926H35.6982C36.5276 11.8926 37.1624 11.7445 37.6025 11.4482C38.0426 11.152 38.2627 10.6611 38.2627 9.97559ZM56.9243 14H53.6235L52.4809 10.8262H47.3393L46.2475 14H42.9467L48.2407 0.352539H51.6684L56.9243 14ZM51.7827 8.62988L50.2719 4.30078C50.1957 4.08073 50.1238 3.84375 50.0561 3.58984C49.9884 3.32747 49.9461 3.09473 49.9291 2.8916H49.8657C49.8403 3.08626 49.7937 3.31055 49.726 3.56445C49.6668 3.8099 49.5948 4.0638 49.5102 4.32617L48.0756 8.62988H51.7827ZM69.8222 4.59277C69.8222 5.26986 69.6868 5.89193 69.4159 6.45898C69.1536 7.02604 68.7812 7.5127 68.2988 7.91895C67.8163 8.3252 67.2323 8.64258 66.5468 8.87109C65.8613 9.09115 65.0995 9.20117 64.2616 9.20117H62.6747V14H59.6152V0.352539H64.3759C66.1617 0.352539 67.5159 0.716471 68.4384 1.44434C69.3609 2.16374 69.8222 3.21322 69.8222 4.59277ZM66.623 4.68164C66.623 3.91992 66.4029 3.36979 65.9628 3.03125C65.5312 2.68424 64.871 2.51074 63.9823 2.51074H62.6747V7.05566H63.8808C64.7779 7.05566 65.4592 6.861 65.9247 6.47168C66.3902 6.08236 66.623 5.48568 66.623 4.68164ZM73.3383 14V0.352539H76.3852V5.79883H78.81C79.5886 5.79883 80.2868 5.89193 80.9047 6.07812C81.5225 6.26432 82.043 6.53092 82.4662 6.87793C82.8979 7.21647 83.2237 7.62695 83.4437 8.10938C83.6723 8.5918 83.7865 9.13346 83.7865 9.73438C83.7865 10.3861 83.6638 10.9743 83.4184 11.499C83.1814 12.0238 82.8386 12.4723 82.39 12.8447C81.9415 13.2171 81.3956 13.5049 80.7523 13.708C80.1091 13.9027 79.3855 14 78.5814 14H73.3383ZM76.3852 7.89355V11.9053H78.1625C79.0596 11.9053 79.7409 11.7487 80.2064 11.4355C80.6719 11.1224 80.9047 10.6061 80.9047 9.88672C80.9047 9.17578 80.6804 8.66797 80.2318 8.36328C79.7833 8.05013 79.1104 7.89355 78.2133 7.89355H76.3852ZM88.6869 14H85.64V0.352539H88.6869V14ZM101.115 0.352539H103.946V8.07129C103.946 8.54525 103.937 8.9515 103.92 9.29004C103.903 9.62012 103.882 9.87402 103.857 10.0518H103.895C103.98 9.90788 104.081 9.73861 104.2 9.54395C104.327 9.34928 104.504 9.09538 104.733 8.78223L110.801 0.352539H114.064V14H111.233V6.1416C111.233 5.65918 111.237 5.24447 111.245 4.89746C111.262 4.54199 111.284 4.26693 111.309 4.07227H111.258C111.19 4.21615 111.08 4.41081 110.928 4.65625C110.776 4.90169 110.59 5.17253 110.369 5.46875L104.187 14H101.115V0.352539ZM136.153 2.67578H131.989V14H128.929V2.67578H124.752V0.352539H136.153V2.67578ZM144.595 14.2412C143.545 14.2412 142.589 14.0762 141.725 13.7461C140.862 13.4076 140.122 12.9336 139.504 12.3242C138.894 11.7148 138.42 10.987 138.082 10.1406C137.743 9.29427 137.574 8.36328 137.574 7.34766C137.574 6.28971 137.739 5.32064 138.069 4.44043C138.408 3.55176 138.89 2.79004 139.516 2.15527C140.143 1.51204 140.904 1.0127 141.802 0.657227C142.699 0.301758 143.714 0.124023 144.848 0.124023C145.898 0.124023 146.846 0.297526 147.692 0.644531C148.539 0.991536 149.262 1.47396 149.863 2.0918C150.464 2.70964 150.925 3.44173 151.247 4.28809C151.577 5.12598 151.742 6.04427 151.742 7.04297C151.742 8.14323 151.568 9.1377 151.221 10.0264C150.874 10.915 150.384 11.6725 149.749 12.2988C149.123 12.9167 148.369 13.3949 147.489 13.7334C146.617 14.0719 145.652 14.2412 144.595 14.2412ZM144.734 2.44727C144.116 2.44727 143.562 2.56152 143.071 2.79004C142.58 3.01855 142.165 3.34017 141.827 3.75488C141.488 4.1696 141.226 4.66895 141.04 5.25293C140.862 5.83691 140.773 6.48438 140.773 7.19531C140.773 7.91471 140.858 8.56641 141.027 9.15039C141.205 9.72591 141.459 10.221 141.789 10.6357C142.119 11.042 142.521 11.3594 142.995 11.5879C143.477 11.8079 144.019 11.918 144.62 11.918C145.255 11.918 145.818 11.8122 146.308 11.6006C146.799 11.389 147.21 11.0843 147.54 10.6865C147.87 10.2803 148.12 9.78939 148.289 9.21387C148.458 8.62988 148.543 7.96973 148.543 7.2334C148.543 6.48014 148.462 5.80729 148.302 5.21484C148.141 4.6224 147.9 4.12305 147.578 3.7168C147.265 3.30208 146.867 2.98893 146.385 2.77734C145.911 2.55729 145.36 2.44727 144.734 2.44727ZM166.303 14H163.256V8.35059C162.562 8.69759 161.872 8.96842 161.187 9.16309C160.51 9.35775 159.795 9.45508 159.041 9.45508C157.704 9.45508 156.68 9.125 155.969 8.46484C155.267 7.80469 154.915 6.81868 154.915 5.50684V0.352539H157.962V5.11328C157.962 5.83268 158.119 6.36165 158.432 6.7002C158.754 7.03027 159.257 7.19531 159.943 7.19531C160.476 7.19531 161.013 7.11491 161.555 6.9541C162.105 6.79329 162.672 6.55632 163.256 6.24316V0.352539H166.303V14ZM182.641 14H179.011L174.631 8.05859C174.571 7.98242 174.495 7.8724 174.402 7.72852C174.309 7.58464 174.229 7.44076 174.161 7.29688H174.11V14H171.051V0.352539H174.11V6.78906H174.161C174.203 6.70443 174.271 6.59017 174.364 6.44629C174.457 6.30241 174.55 6.16699 174.643 6.04004L178.807 0.352539H182.197L177.208 6.89062L182.641 14ZM197.202 14H193.902L192.759 10.8262H187.617L186.526 14H183.225L188.519 0.352539H191.947L197.202 14ZM192.061 8.62988L190.55 4.30078C190.474 4.08073 190.402 3.84375 190.334 3.58984C190.267 3.32747 190.224 3.09473 190.207 2.8916H190.144C190.118 3.08626 190.072 3.31055 190.004 3.56445C189.945 3.8099 189.873 4.0638 189.788 4.32617L188.354 8.62988H192.061Z" fill="white"/>
</svg>
