<svg width="20" height="20" viewBox="0 0 20 20" fill="none" xmlns="http://www.w3.org/2000/svg">
<path fill-rule="evenodd" clip-rule="evenodd" d="M3.03396 4.05857C2.26589 4.75224 1.76684 5.83284 1.99493 7.42928C2.22332 9.02783 3.26494 10.6852 4.80436 12.3478C6.25865 13.9184 8.10962 15.4437 9.99996 16.874C11.8903 15.4437 13.7413 13.9184 15.1956 12.3478C16.735 10.6852 17.7766 9.02783 18.005 7.4293C18.233 5.83285 17.734 4.75224 16.9659 4.05856C16.1766 3.34572 15.055 3 14 3C12.1319 3 11.0923 4.08479 10.5177 4.68443C10.4581 4.7466 10.4035 4.80356 10.3535 4.85355C10.1582 5.04882 9.84166 5.04882 9.6464 4.85355C9.59641 4.80356 9.54182 4.7466 9.48224 4.68443C8.90757 4.08479 7.86797 3 5.99995 3C4.94495 3 3.82325 3.34573 3.03396 4.05857ZM2.36371 3.31643C3.37369 2.40427 4.75202 2 5.99995 2C8.07123 2 9.34539 3.11257 9.99996 3.77862C10.6545 3.11257 11.9287 2 14 2C15.2479 2 16.6262 2.40428 17.6362 3.31644C18.6674 4.24776 19.2668 5.66715 18.9949 7.5707C18.7233 9.47217 17.5149 11.3148 15.9294 13.0272C14.3355 14.7486 12.3064 16.3952 10.3 17.9C10.1222 18.0333 9.87773 18.0333 9.69995 17.9C7.69353 16.3952 5.66443 14.7485 4.0706 13.0272C2.48503 11.3148 1.27665 9.47217 1.00498 7.57072C0.733012 5.66716 1.33249 4.24776 2.36371 3.31643Z" fill="black"/>
</svg>
